<?xml version="1.0" standalone="no"?>
<!DOCTYPE svg PUBLIC "-//W3C//DTD SVG 20010904//EN"
 "http://www.w3.org/TR/2001/REC-SVG-20010904/DTD/svg10.dtd">
<svg version="1.0" xmlns="http://www.w3.org/2000/svg"
 width="512.000000pt" height="512.000000pt" viewBox="0 0 512.000000 512.000000"
 preserveAspectRatio="xMidYMid meet">
<metadata>
Created by potrace 1.14, written by Peter Selinger 2001-2017
</metadata>
<g transform="translate(0.000000,512.000000) scale(0.100000,-0.100000)"
fill="#000000" stroke="none">
<path d="M120 5104 c-45 -20 -77 -50 -101 -96 -19 -36 -19 -98 -19 -2443 0
-2149 2 -2410 15 -2443 21 -49 52 -81 100 -103 39 -18 128 -19 2445 -19 2317
0 2406 1 2445 19 48 22 79 54 100 103 13 33 15 294 15 2443 0 2345 0 2407 -19
2443 -24 47 -56 77 -103 97 -33 13 -293 15 -2440 15 -2124 -1 -2407 -3 -2438
-16z m2841 -814 c284 -29 501 -85 819 -213 l155 -62 3 -428 2 -427 -172 2
-171 3 -23 105 c-86 401 -272 610 -614 691 -78 19 -124 23 -260 23 -193 1
-255 -12 -396 -80 -104 -49 -228 -156 -294 -253 -119 -176 -192 -399 -232
-706 -16 -130 -16 -626 1 -760 56 -450 186 -733 416 -905 155 -116 384 -168
622 -141 392 44 626 260 737 681 l23 85 233 3 233 2 -7 -40 c-10 -64 -75 -247
-122 -345 -175 -364 -463 -587 -872 -676 -124 -27 -444 -37 -589 -20 -201 25
-352 70 -529 159 -132 66 -247 153 -369 276 -251 254 -398 572 -451 976 -20
153 -23 474 -5 615 62 501 272 890 621 1154 194 146 420 237 682 275 113 17
418 20 559 6z"/>
</g>
</svg>
